<?xml version="1.0" standalone="no"?>
<!DOCTYPE svg PUBLIC "-//W3C//DTD SVG 20010904//EN"
 "http://www.w3.org/TR/2001/REC-SVG-20010904/DTD/svg10.dtd">
<svg version="1.0" xmlns="http://www.w3.org/2000/svg"
 width="900.000000pt" height="900.000000pt" viewBox="0 0 900.000000 900.000000"
 preserveAspectRatio="xMidYMid meet">
<metadata>
Created by potrace 1.14, written by Peter Selinger 2001-2017
</metadata>
<g transform="translate(0.000000,900.000000) scale(0.100000,-0.100000)"
fill="#000000" stroke="none">
<path d="M0 4500 l0 -4500 4500 0 4500 0 0 4500 0 4500 -4500 0 -4500 0 0
-4500z m1518 2608 c43 -77 162 -185 257 -235 148 -76 219 -92 585 -128 279
-28 439 -53 546 -86 86 -27 225 -96 287 -143 25 -19 48 -32 50 -28 2 4 5 30 6
57 5 110 35 192 84 229 62 47 93 28 52 -31 -44 -66 -37 -115 67 -433 22 -69
58 -171 79 -227 70 -184 92 -448 48 -563 -48 -128 -130 -267 -233 -397 -197
-251 -255 -355 -263 -481 -7 -102 13 -178 74 -278 60 -100 141 -182 218 -220
57 -28 66 -29 195 -29 144 0 177 7 239 53 31 23 61 74 61 104 0 9 -13 12 -45
10 -51 -5 -60 11 -24 44 29 26 35 43 80 248 83 370 180 571 350 730 129 119
360 263 508 314 37 13 42 45 10 63 -11 6 -65 17 -118 24 -54 8 -110 19 -124
26 -53 24 -126 155 -127 226 0 84 25 97 62 31 27 -50 92 -88 148 -87 l35 0
-40 15 c-65 24 -125 93 -125 144 0 22 19 27 37 9 15 -15 75 -13 153 5 88 21
166 20 217 -3 46 -21 68 -49 78 -101 12 -60 21 -67 35 -26 18 55 5 100 -46
157 -24 28 -42 54 -39 60 11 17 77 9 114 -13 20 -12 57 -40 82 -63 60 -56 72
-61 154 -69 85 -8 150 -38 171 -78 19 -36 13 -54 -37 -120 -39 -53 -50 -88
-26 -88 25 0 58 32 81 79 26 51 93 105 123 99 20 -4 20 -3 6 -176 -8 -102 -9
-104 -43 -132 -54 -45 -173 -102 -224 -107 -46 -6 -48 -5 -95 46 -51 56 -86
65 -129 36 l-22 -16 34 -49 c19 -28 37 -63 40 -80 3 -16 9 -44 12 -61 3 -17
18 -45 34 -62 67 -77 90 -157 68 -242 -16 -63 -40 -71 -54 -18 -19 76 -112
105 -209 63 -26 -11 -66 -20 -90 -20 -46 0 -55 -9 -55 -59 0 -59 30 -129 86
-197 31 -37 60 -79 65 -92 18 -46 10 -90 -20 -124 -27 -30 -34 -33 -90 -33
-34 0 -61 -2 -61 -6 0 -18 70 -107 149 -188 95 -98 129 -154 138 -221 7 -47
-3 -50 -45 -15 -17 14 -32 25 -35 25 -4 0 7 -32 24 -71 71 -167 98 -401 64
-555 -30 -137 -49 -148 -50 -31 -1 45 -7 83 -17 102 -16 29 -16 29 -22 -60 -9
-140 -24 -203 -66 -293 -76 -160 -145 -240 -274 -317 -50 -30 -113 -62 -139
-71 -52 -17 -52 -18 -62 -77 -4 -28 -19 -51 -51 -82 -24 -24 -44 -45 -44 -48
0 -2 19 -7 41 -11 23 -4 88 -27 144 -51 76 -33 116 -45 152 -45 56 0 100 -20
178 -80 51 -40 59 -42 162 -55 60 -7 127 -20 148 -28 22 -9 57 -18 79 -22 48
-8 83 -42 92 -90 9 -49 -8 -66 -38 -38 -13 12 -45 24 -73 28 -27 4 -65 13 -85
20 -44 17 -130 27 -130 16 0 -16 59 -88 97 -119 22 -17 65 -40 95 -52 30 -11
63 -29 72 -39 20 -23 24 -94 6 -116 -11 -14 -15 -12 -31 14 -19 32 -30 36
-122 46 -71 8 -104 35 -144 115 -42 83 -56 78 -49 -16 3 -44 8 -102 11 -130
10 -75 -23 -126 -44 -71 -5 12 -26 38 -46 57 l-37 35 6 80 c6 76 5 82 -24 133
-46 79 -107 94 -166 42 -19 -16 -51 -34 -73 -40 -43 -11 -91 -59 -91 -91 0
-33 -38 -4 -51 39 -18 61 6 105 75 139 31 15 58 34 60 43 19 70 20 66 -47 98
-34 17 -72 33 -85 37 -41 12 -187 23 -201 15 -8 -4 -24 -32 -36 -61 -12 -30
-27 -54 -35 -54 -17 0 -50 119 -59 220 -6 64 -9 74 -15 50 -16 -70 -46 -112
-99 -140 -63 -34 -157 -104 -157 -117 0 -6 33 -41 73 -79 52 -47 84 -88 108
-135 38 -74 40 -76 124 -93 33 -7 76 -25 94 -39 30 -22 46 -26 110 -27 59 -1
100 -10 183 -38 59 -20 119 -37 133 -37 42 0 93 -29 115 -65 11 -18 20 -37 20
-44 0 -16 -25 -14 -39 3 -9 11 -27 13 -69 9 -31 -3 -59 -7 -61 -9 -1 -1 4 -13
13 -26 20 -28 21 -58 2 -58 -7 0 -25 6 -40 13 -16 9 -67 15 -137 16 -97 2
-118 5 -153 26 -49 28 -292 79 -351 73 -22 -3 -74 -14 -115 -26 -41 -12 -97
-24 -123 -28 -34 -4 -58 -14 -83 -36 -68 -59 -67 5 1 84 28 32 47 42 111 57
72 17 120 68 136 143 10 49 9 59 -8 89 -11 18 -52 61 -91 96 -84 73 -103 73
-141 5 -36 -65 -46 -57 -42 33 2 49 18 81 60 120 37 35 100 127 100 148 0 8
-9 22 -21 33 -39 35 -67 98 -79 176 l-13 77 -106 47 c-243 108 -279 130 -389
238 -298 291 -398 474 -482 876 l-18 85 -1 -130 c0 -71 9 -218 20 -325 25
-239 37 -773 20 -899 -31 -230 -107 -472 -197 -624 -63 -105 -204 -249 -300
-306 -69 -40 -104 -51 -104 -31 0 5 26 26 58 46 108 68 144 114 176 226 60
209 79 424 52 573 -19 99 -107 451 -161 645 -48 170 -84 400 -92 586 -3 85 -8
153 -10 151 -13 -14 -85 -284 -102 -386 -25 -146 -26 -238 -6 -465 18 -201 37
-316 70 -428 79 -263 95 -324 105 -414 10 -81 10 -106 -1 -138 -13 -36 -42
-67 -53 -55 -3 2 -10 35 -16 72 -19 122 -23 131 -195 422 -285 484 -359 707
-358 1077 l0 126 -84 -131 c-133 -206 -197 -280 -326 -376 -89 -65 -178 -104
-245 -105 -83 -2 -80 20 9 63 101 49 185 134 239 243 38 78 45 104 80 309 46
269 95 513 115 570 18 50 13 60 -18 32 -43 -40 -238 -183 -349 -257 -215 -143
-371 -204 -545 -213 -90 -5 -103 -4 -103 10 0 11 15 20 43 27 96 25 140 44
186 80 107 85 162 180 250 430 148 420 256 671 353 820 52 80 194 228 313 328
l90 75 -50 -6 c-200 -25 -378 -17 -492 23 -109 38 -238 131 -284 206 -32 53
-13 60 51 19 111 -71 254 -93 371 -59 30 9 191 86 359 171 381 194 588 275
765 298 l49 7 -112 29 c-248 64 -440 159 -556 274 -59 60 -159 212 -187 284
-21 55 -37 141 -26 141 3 0 18 -24 35 -52z m6381 -1226 c68 -34 75 -54 79
-230 3 -125 1 -165 -11 -194 -15 -36 -17 -36 -84 -43 -102 -9 -209 -26 -223
-35 -10 -6 -5 -21 20 -60 27 -41 37 -74 52 -158 10 -59 18 -112 18 -118 0 -15
-73 -47 -96 -42 -17 3 -22 25 -41 173 -12 94 -22 175 -22 181 -1 8 -50 14
-142 19 -133 7 -143 9 -164 31 -13 14 -28 44 -34 69 -14 56 -14 225 0 262 18
49 58 81 114 94 72 16 99 7 135 -47 37 -52 69 -68 122 -59 40 7 78 44 78 75 0
25 39 70 74 86 42 18 84 17 125 -4z m358 -777 c26 -37 68 -126 112 -235 65
-163 125 -349 116 -358 -2 -3 -11 3 -20 12 -19 19 -73 21 -96 3 -42 -32 -50
-90 -18 -131 28 -35 80 -36 114 -1 l25 24 0 -23 c0 -35 -23 -57 -66 -65 -64
-11 -85 -2 -153 66 l-64 64 -66 -30 c-102 -46 -252 -103 -294 -111 -38 -8 -39
-7 -65 39 -15 25 -50 70 -78 99 -41 42 -57 52 -84 52 -47 0 -95 -56 -122 -143
l-20 -68 -45 41 c-24 23 -60 48 -79 56 -67 28 -130 -26 -149 -129 -4 -20 -9
-37 -11 -37 -3 0 -18 15 -35 34 -39 45 -105 71 -156 61 -54 -10 -115 -74 -143
-152 -12 -35 -24 -63 -26 -63 -2 0 -21 18 -41 41 -47 52 -81 69 -137 69 -36 0
-52 -6 -80 -30 -38 -33 -76 -103 -76 -138 0 -31 -11 -28 -55 19 -45 47 -116
83 -145 74 -24 -8 -55 -58 -78 -124 l-17 -51 -43 54 c-24 30 -63 64 -87 77
-40 21 -44 22 -67 7 -31 -20 -58 -75 -58 -116 0 -44 -15 -47 -39 -8 -30 47
-97 106 -122 106 -14 0 -25 -12 -37 -40 -9 -22 -19 -40 -22 -40 -23 1 -131
219 -145 293 -20 104 143 239 462 385 123 56 463 183 641 239 124 39 132 38
154 -23 11 -32 15 -34 58 -34 25 0 99 9 165 20 184 31 439 60 448 50 5 -4 -5
-11 -22 -15 -38 -8 -245 -94 -406 -167 -286 -131 -774 -310 -975 -357 -137
-32 -240 -47 -240 -34 1 16 87 71 285 184 200 114 434 224 584 276 45 15 81
31 81 36 0 27 -298 -89 -610 -239 -163 -79 -233 -118 -387 -216 -71 -46 -106
-48 -111 -7 -2 21 8 35 54 73 32 26 64 51 73 56 31 17 2 21 -31 5 -56 -29
-177 -125 -184 -148 -31 -98 326 -78 705 39 242 76 434 147 727 272 153 66
358 150 454 186 288 111 409 161 540 225 69 34 134 60 145 59 10 -2 38 -30 62
-63z m197 -601 c19 -18 21 -75 4 -92 -32 -32 -98 2 -98 51 0 52 58 78 94 41z
m-759 -58 c22 -24 53 -68 67 -98 24 -47 25 -55 12 -70 -23 -24 -101 -55 -201
-78 -63 -15 -99 -30 -127 -52 -48 -39 -114 -64 -189 -72 -38 -5 -80 -19 -120
-41 -73 -39 -165 -65 -235 -65 -35 0 -70 -9 -116 -31 -113 -53 -218 -73 -244
-47 -9 9 -12 9 -12 -4 0 -17 -114 -73 -173 -83 -45 -9 -94 9 -102 36 -4 10
-11 19 -16 19 -14 0 -11 -15 11 -42 18 -24 18 -26 2 -41 -28 -26 -70 -37 -135
-37 -76 0 -106 15 -130 60 l-19 35 7 -47 6 -48 -41 0 c-67 0 -108 23 -130 74
-51 114 -63 238 -24 253 20 8 77 -47 124 -119 21 -31 40 -54 44 -51 3 4 6 22
6 42 0 83 34 151 75 151 30 0 103 -60 145 -119 19 -28 38 -50 41 -51 3 0 9 24
12 54 6 59 38 130 65 145 11 6 30 5 56 -4 34 -12 72 -47 145 -135 l20 -25 0
55 c-1 65 9 94 46 138 42 50 77 65 125 52 49 -13 88 -46 125 -104 16 -25 31
-43 35 -41 3 2 7 18 8 37 4 48 21 98 50 138 41 58 71 75 129 75 65 0 99 -24
133 -93 14 -28 28 -51 31 -51 3 -1 11 29 18 66 21 112 51 153 112 153 42 0
103 -51 135 -112 8 -16 18 -28 22 -28 4 0 13 30 20 66 20 108 70 184 119 184
19 0 39 -13 68 -44z m509 -91 c2 -7 26 -28 53 -47 45 -31 53 -33 130 -33 79 0
83 1 115 33 19 17 37 32 40 32 14 0 89 -130 93 -162 11 -88 -132 -297 -354
-518 -271 -270 -461 -420 -789 -623 -375 -232 -661 -337 -919 -337 -93 0 -102
2 -147 30 -54 35 -148 120 -178 163 l-20 28 29 -6 c15 -4 55 -20 88 -37 72
-37 106 -34 130 12 l15 29 46 -21 c33 -14 59 -19 86 -15 47 6 67 21 85 65 12
30 15 31 36 18 36 -22 75 -27 120 -15 61 16 95 44 108 90 13 43 16 45 43 24
47 -36 137 4 165 73 12 28 15 29 57 24 53 -6 77 11 105 74 18 39 21 42 69 46
60 6 95 34 112 91 11 37 13 38 44 32 36 -6 91 12 113 38 7 9 18 40 25 69 10
45 15 53 36 56 64 6 100 24 139 68 22 25 43 59 46 75 5 21 12 29 29 29 79 0
118 121 80 249 l-15 53 90 85 c50 47 91 92 91 101 0 9 -11 37 -25 61 -14 23
-25 51 -25 61 0 30 42 34 54 5z m-187 -375 c28 -82 8 -195 -39 -217 -34 -17
-56 -8 -72 31 -13 29 -13 28 -8 -31 4 -52 1 -67 -18 -98 -12 -19 -39 -44 -61
-55 -41 -21 -104 -27 -114 -10 -14 22 -20 7 -23 -58 -2 -61 -5 -70 -33 -96
-26 -23 -38 -27 -68 -23 -20 3 -43 8 -52 11 -12 5 -18 -5 -28 -44 -7 -28 -23
-60 -34 -71 -21 -19 -66 -24 -102 -10 -17 7 -22 1 -37 -49 -13 -42 -24 -60
-43 -68 -35 -16 -61 -15 -89 3 -23 15 -24 15 -31 -21 -4 -23 -20 -51 -40 -71
-43 -43 -82 -44 -130 -2 l-35 31 0 -34 c0 -47 -16 -91 -39 -105 -65 -41 -157
-35 -201 12 -28 30 -45 33 -30 5 25 -47 -25 -110 -87 -110 -49 0 -94 22 -130
64 -37 41 -53 48 -29 11 19 -29 21 -65 3 -89 -27 -37 -134 14 -193 91 -18 23
-34 48 -37 55 -2 7 -7 10 -11 7 -3 -3 8 -24 25 -48 61 -82 -9 -58 -73 25 -21
27 -57 87 -80 133 -43 84 -43 84 -41 184 2 78 7 108 23 139 11 21 20 51 20 66
0 54 31 90 125 146 49 30 94 52 98 49 8 -5 3 -53 -9 -95 -6 -19 -49 -25 -59
-8 -16 26 -23 2 -27 -85 -4 -109 -12 -125 -58 -108 -35 13 -37 8 -15 -52 15
-41 20 -125 8 -125 -3 0 -19 15 -35 33 l-28 32 30 -59 c39 -75 39 -87 0 -79
-40 7 -38 -3 3 -21 19 -7 43 -26 55 -40 19 -25 26 -27 112 -29 82 -2 94 -4
110 -24 21 -26 35 -30 26 -8 -4 10 8 22 37 37 34 18 59 23 127 23 70 1 92 5
115 21 46 31 130 64 167 64 26 1 37 7 53 32 25 39 95 84 153 97 40 8 43 7 58
-18 l15 -26 -5 33 c-5 26 -1 38 19 58 33 33 92 57 121 50 19 -5 24 -2 24 13 0
23 81 96 116 105 18 5 32 1 46 -11 18 -17 19 -16 9 9 -16 42 32 104 114 147
35 19 41 19 51 6 16 -22 22 -18 16 10 -3 20 7 35 50 77 29 29 74 64 100 77 27
15 53 38 64 58 27 52 81 95 112 91 21 -2 30 -11 39 -38z m-1407 -176 c0 -4
-30 -40 -67 -81 -140 -154 -185 -210 -232 -288 -69 -112 -86 -169 -73 -242 11
-64 9 -73 -17 -73 -39 0 -56 48 -57 155 0 55 -4 108 -8 118 -7 14 -3 17 17 17
37 0 48 22 54 110 6 79 6 80 33 80 36 0 49 18 59 79 4 28 10 53 12 55 2 2 36
11 74 20 39 9 88 25 110 36 39 18 95 26 95 14z"/>
<path d="M7766 5684 c-39 -38 -4 -114 52 -114 39 0 52 12 59 54 4 27 1 41 -12
56 -22 24 -77 27 -99 4z"/>
<path d="M7370 5643 c-44 -22 -53 -70 -21 -102 45 -45 131 -10 131 54 0 55
-51 77 -110 48z"/>
</g>
</svg>
